<svg width="144" height="71" viewBox="0 0 144 71" fill="none" xmlns="http://www.w3.org/2000/svg">
<path d="M9.41704 17.1153C10.3911 11.3838 15.1766 7.07327 20.9783 6.70143L115.325 0.654702C120.9 0.297394 126.039 3.67089 127.928 8.92814L138.448 38.1989C141.17 45.7728 136.155 53.9138 128.166 54.8886L17.0485 68.4481C8.71863 69.4646 1.76014 62.1718 3.16605 53.8988L9.41704 17.1153Z" fill="#FF5B79"/>
<path d="M36.0128 31.5071H33.527C33.4938 31.2519 33.4259 31.0215 33.3232 30.8161C33.2204 30.6106 33.0845 30.4349 32.9155 30.2891C32.7464 30.1432 32.5459 30.0322 32.3139 29.956C32.0852 29.8764 31.8317 29.8366 31.5533 29.8366C31.0594 29.8366 30.6335 29.9576 30.2756 30.1996C29.9209 30.4415 29.6475 30.7912 29.4553 31.2486C29.2663 31.706 29.1719 32.2595 29.1719 32.9091C29.1719 33.5852 29.268 34.152 29.4602 34.6094C29.6558 35.0634 29.9292 35.4065 30.2805 35.6385C30.6352 35.8672 31.0545 35.9815 31.5384 35.9815C31.8101 35.9815 32.0571 35.9467 32.2791 35.8771C32.5045 35.8075 32.7017 35.7064 32.8707 35.5739C33.0431 35.438 33.1839 35.2739 33.2933 35.0817C33.406 34.8861 33.4839 34.6657 33.527 34.4205L36.0128 34.4354C35.9697 34.8861 35.8388 35.3303 35.62 35.7678C35.4046 36.2053 35.108 36.6046 34.7301 36.9659C34.3523 37.3239 33.8916 37.6089 33.348 37.821C32.8078 38.0331 32.188 38.1392 31.4886 38.1392C30.5672 38.1392 29.742 37.937 29.0128 37.5327C28.2869 37.125 27.7135 36.5317 27.2926 35.7528C26.8717 34.974 26.6612 34.026 26.6612 32.9091C26.6612 31.7888 26.875 30.8393 27.3026 30.0604C27.7301 29.2815 28.3085 28.6899 29.0376 28.2855C29.7668 27.8812 30.5838 27.679 31.4886 27.679C32.1051 27.679 32.6752 27.7652 33.1989 27.9375C33.7225 28.1065 34.1832 28.3551 34.581 28.6832C34.9787 29.008 35.3018 29.4074 35.5504 29.8814C35.799 30.3554 35.9531 30.8973 36.0128 31.5071ZM39.5737 38.1293C39.0865 38.1293 38.6539 38.0481 38.2761 37.8857C37.9016 37.7199 37.6049 37.4714 37.3862 37.1399C37.1708 36.8052 37.063 36.3859 37.063 35.8821C37.063 35.4579 37.1376 35.0999 37.2868 34.8082C37.4359 34.5166 37.6414 34.2796 37.9032 34.0973C38.1651 33.915 38.4667 33.7775 38.8081 33.6847C39.1494 33.5885 39.514 33.5239 39.9018 33.4908C40.336 33.451 40.6857 33.4096 40.9508 33.3665C41.216 33.3201 41.4082 33.2554 41.5275 33.1726C41.6502 33.0864 41.7115 32.9654 41.7115 32.8097V32.7848C41.7115 32.5296 41.6236 32.3324 41.448 32.1932C41.2723 32.054 41.0353 31.9844 40.737 31.9844C40.4155 31.9844 40.157 32.054 39.9615 32.1932C39.7659 32.3324 39.6416 32.5246 39.5886 32.7699L37.3464 32.6903C37.4127 32.2263 37.5834 31.812 37.8585 31.4474C38.1369 31.0795 38.5181 30.7912 39.002 30.5824C39.4892 30.3703 40.0742 30.2642 40.7569 30.2642C41.2441 30.2642 41.6932 30.3222 42.1042 30.4382C42.5152 30.5509 42.8732 30.7166 43.1781 30.9354C43.483 31.1508 43.7183 31.416 43.8841 31.7308C44.0531 32.0457 44.1376 32.4053 44.1376 32.8097V38H41.8507V36.9361H41.791C41.6551 37.1946 41.4811 37.4134 41.269 37.5923C41.0602 37.7713 40.8133 37.9055 40.5282 37.995C40.2465 38.0845 39.9283 38.1293 39.5737 38.1293ZM40.3244 36.5384C40.5862 36.5384 40.8216 36.4853 41.0304 36.3793C41.2425 36.2732 41.4115 36.1274 41.5375 35.9418C41.6634 35.7528 41.7264 35.5341 41.7264 35.2855V34.5597C41.6568 34.5961 41.5723 34.6293 41.4728 34.6591C41.3767 34.6889 41.2707 34.7171 41.1547 34.7436C41.0386 34.7701 40.9193 34.7933 40.7967 34.8132C40.6741 34.8331 40.5564 34.8513 40.4437 34.8679C40.215 34.9044 40.0195 34.9607 39.8571 35.0369C39.698 35.1132 39.5753 35.2126 39.4892 35.3352C39.4063 35.4545 39.3649 35.5971 39.3649 35.7628C39.3649 36.0147 39.4544 36.2069 39.6333 36.3395C39.8156 36.4721 40.046 36.5384 40.3244 36.5384ZM45.6241 38V30.3636H47.9856V31.7557H48.0652C48.2044 31.2519 48.4314 30.8774 48.7463 30.6321C49.0611 30.3835 49.4274 30.2592 49.845 30.2592C49.9577 30.2592 50.0737 30.2675 50.193 30.2841C50.3123 30.2973 50.4234 30.3189 50.5261 30.3487V32.4616C50.4101 32.4219 50.2576 32.3904 50.0687 32.3672C49.8831 32.344 49.7174 32.3324 49.5716 32.3324C49.2832 32.3324 49.023 32.397 48.791 32.5263C48.5623 32.6522 48.3817 32.8295 48.2491 33.0582C48.1199 33.2836 48.0552 33.5488 48.0552 33.8537V38H45.6241ZM54.6898 38.1442C53.891 38.1442 53.2016 37.9867 52.6216 37.6719C52.0449 37.3537 51.6008 36.9013 51.2892 36.3146C50.981 35.7247 50.8269 35.0237 50.8269 34.2116C50.8269 33.4228 50.9827 32.7334 51.2942 32.1435C51.6058 31.5502 52.0449 31.0895 52.6117 30.7614C53.1784 30.4299 53.8463 30.2642 54.6152 30.2642C55.1588 30.2642 55.656 30.3487 56.1067 30.5178C56.5575 30.6868 56.9469 30.937 57.275 31.2685C57.6032 31.5999 57.8584 32.0092 58.0407 32.4964C58.223 32.9804 58.3141 33.5355 58.3141 34.1619V34.7685H51.677V33.3565H56.052C56.0487 33.098 55.9874 32.8677 55.8681 32.6655C55.7488 32.4633 55.5847 32.3059 55.3759 32.1932C55.1704 32.0772 54.9334 32.0192 54.665 32.0192C54.3932 32.0192 54.1496 32.0805 53.9341 32.2031C53.7187 32.3224 53.548 32.4865 53.4221 32.6953C53.2961 32.9008 53.2298 33.1345 53.2232 33.3963V34.8331C53.2232 35.1446 53.2845 35.4181 53.4071 35.6534C53.5298 35.8854 53.7038 36.0661 53.9292 36.1953C54.1545 36.3246 54.423 36.3892 54.7346 36.3892C54.95 36.3892 55.1455 36.3594 55.3212 36.2997C55.4969 36.2401 55.6477 36.1522 55.7736 36.0362C55.8996 35.9202 55.994 35.7777 56.057 35.6087L58.2892 35.6733C58.1964 36.1738 57.9926 36.6096 57.6777 36.9808C57.3662 37.3487 56.9569 37.6354 56.4498 37.8409C55.9426 38.0431 55.356 38.1442 54.6898 38.1442ZM63.1254 38.1442C62.3266 38.1442 61.6372 37.9867 61.0572 37.6719C60.4805 37.3537 60.0363 36.9013 59.7248 36.3146C59.4165 35.7247 59.2624 35.0237 59.2624 34.2116C59.2624 33.4228 59.4182 32.7334 59.7298 32.1435C60.0413 31.5502 60.4805 31.0895 61.0472 30.7614C61.614 30.4299 62.2818 30.2642 63.0508 30.2642C63.5943 30.2642 64.0915 30.3487 64.5423 30.5178C64.993 30.6868 65.3825 30.937 65.7106 31.2685C66.0387 31.5999 66.2939 32.0092 66.4762 32.4964C66.6585 32.9804 66.7496 33.5355 66.7496 34.1619V34.7685H60.1126V33.3565H64.4876C64.4843 33.098 64.4229 32.8677 64.3036 32.6655C64.1843 32.4633 64.0202 32.3059 63.8114 32.1932C63.6059 32.0772 63.369 32.0192 63.1005 32.0192C62.8287 32.0192 62.5851 32.0805 62.3697 32.2031C62.1542 32.3224 61.9835 32.4865 61.8576 32.6953C61.7317 32.9008 61.6654 33.1345 61.6587 33.3963V34.8331C61.6587 35.1446 61.7201 35.4181 61.8427 35.6534C61.9653 35.8854 62.1393 36.0661 62.3647 36.1953C62.5901 36.3246 62.8585 36.3892 63.1701 36.3892C63.3855 36.3892 63.5811 36.3594 63.7567 36.2997C63.9324 36.2401 64.0832 36.1522 64.2092 36.0362C64.3351 35.9202 64.4296 35.7777 64.4925 35.6087L66.7248 35.6733C66.632 36.1738 66.4281 36.6096 66.1133 36.9808C65.8017 37.3487 65.3924 37.6354 64.8853 37.8409C64.3782 38.0431 63.7915 38.1442 63.1254 38.1442ZM67.9913 38V30.3636H70.3528V31.7557H70.4324C70.5716 31.2519 70.7986 30.8774 71.1135 30.6321C71.4283 30.3835 71.7946 30.2592 72.2122 30.2592C72.3249 30.2592 72.4409 30.2675 72.5602 30.2841C72.6795 30.2973 72.7905 30.3189 72.8933 30.3487V32.4616C72.7773 32.4219 72.6248 32.3904 72.4359 32.3672C72.2503 32.344 72.0846 32.3324 71.9387 32.3324C71.6504 32.3324 71.3902 32.397 71.1582 32.5263C70.9295 32.6522 70.7489 32.8295 70.6163 33.0582C70.487 33.2836 70.4224 33.5488 70.4224 33.8537V38H67.9913ZM76.5586 29.8168V27.8182H85.1644V29.8168H82.0771V38H79.6509V29.8168H76.5586ZM88.8285 38.1442C88.0297 38.1442 87.3403 37.9867 86.7603 37.6719C86.1836 37.3537 85.7395 36.9013 85.4279 36.3146C85.1197 35.7247 84.9656 35.0237 84.9656 34.2116C84.9656 33.4228 85.1213 32.7334 85.4329 32.1435C85.7444 31.5502 86.1836 31.0895 86.7504 30.7614C87.3171 30.4299 87.985 30.2642 88.7539 30.2642C89.2975 30.2642 89.7946 30.3487 90.2454 30.5178C90.6961 30.6868 91.0856 30.937 91.4137 31.2685C91.7418 31.5999 91.997 32.0092 92.1793 32.4964C92.3616 32.9804 92.4528 33.5355 92.4528 34.1619V34.7685H85.8157V33.3565H90.1907C90.1874 33.098 90.1261 32.8677 90.0067 32.6655C89.8874 32.4633 89.7234 32.3059 89.5146 32.1932C89.3091 32.0772 89.0721 32.0192 88.8036 32.0192C88.5318 32.0192 88.2882 32.0805 88.0728 32.2031C87.8574 32.3224 87.6867 32.4865 87.5607 32.6953C87.4348 32.9008 87.3685 33.1345 87.3619 33.3963V34.8331C87.3619 35.1446 87.4232 35.4181 87.5458 35.6534C87.6684 35.8854 87.8424 36.0661 88.0678 36.1953C88.2932 36.3246 88.5617 36.3892 88.8732 36.3892C89.0887 36.3892 89.2842 36.3594 89.4599 36.2997C89.6355 36.2401 89.7863 36.1522 89.9123 36.0362C90.0382 35.9202 90.1327 35.7777 90.1957 35.6087L92.4279 35.6733C92.3351 36.1738 92.1313 36.6096 91.8164 36.9808C91.5049 37.3487 91.0955 37.6354 90.5884 37.8409C90.0813 38.0431 89.4947 38.1442 88.8285 38.1442ZM100.361 32.6953L98.1291 32.755C98.1059 32.5959 98.0429 32.455 97.9402 32.3324C97.8374 32.2064 97.7032 32.1087 97.5375 32.0391C97.3751 31.9661 97.1861 31.9297 96.9707 31.9297C96.689 31.9297 96.4487 31.986 96.2498 32.0987C96.0543 32.2114 95.9582 32.3639 95.9615 32.5561C95.9582 32.7053 96.0178 32.8345 96.1404 32.9439C96.2664 33.0533 96.4901 33.1411 96.8116 33.2074L98.2832 33.4858C99.0455 33.6316 99.6123 33.8736 99.9835 34.2116C100.358 34.5497 100.547 34.9972 100.55 35.554C100.547 36.0777 100.391 36.5334 100.083 36.9212C99.778 37.3089 99.3604 37.6106 98.8301 37.826C98.2998 38.0381 97.6932 38.1442 97.0105 38.1442C95.92 38.1442 95.06 37.9205 94.4302 37.473C93.8038 37.0223 93.4458 36.419 93.3564 35.6634L95.7576 35.6037C95.8107 35.8821 95.9482 36.0942 96.1703 36.2401C96.3923 36.3859 96.6757 36.4588 97.0204 36.4588C97.332 36.4588 97.5855 36.4008 97.7811 36.2848C97.9766 36.1688 98.0761 36.0147 98.0794 35.8224C98.0761 35.6501 97.9998 35.5125 97.8507 35.4098C97.7015 35.3037 97.4679 35.2209 97.1497 35.1612L95.8173 34.9077C95.0517 34.7685 94.4816 34.5116 94.1071 34.1371C93.7325 33.7592 93.5469 33.2786 93.5502 32.6953C93.5469 32.1849 93.6828 31.7491 93.9579 31.3878C94.233 31.0232 94.6241 30.7448 95.1312 30.5526C95.6383 30.3603 96.2366 30.2642 96.926 30.2642C97.96 30.2642 98.7754 30.4813 99.372 30.9155C99.9686 31.3464 100.298 31.9396 100.361 32.6953ZM106.058 30.3636V32.1534H101.24V30.3636H106.058ZM102.249 28.5341H104.68V35.5987C104.68 35.7479 104.704 35.8688 104.75 35.9616C104.8 36.0511 104.871 36.1158 104.964 36.1555C105.057 36.192 105.168 36.2102 105.297 36.2102C105.39 36.2102 105.487 36.2019 105.59 36.1854C105.696 36.1655 105.776 36.1489 105.829 36.1357L106.197 37.8906C106.081 37.9238 105.917 37.9652 105.705 38.0149C105.496 38.0646 105.246 38.0961 104.954 38.1094C104.384 38.1359 103.895 38.0696 103.487 37.9105C103.083 37.7481 102.773 37.4962 102.558 37.1548C102.345 36.8134 102.243 36.3842 102.249 35.8672V28.5341Z" fill="white"/>
</svg>
