<svg width="144" height="71" viewBox="0 0 144 71" fill="none" xmlns="http://www.w3.org/2000/svg">
<path d="M9.41704 17.1153C10.3911 11.3838 15.1766 7.07327 20.9783 6.70143L115.325 0.654702C120.9 0.297394 126.039 3.67089 127.928 8.92814L138.448 38.1989C141.17 45.7728 136.155 53.9138 128.166 54.8886L17.0485 68.4481C8.71863 69.4646 1.76014 62.1718 3.16605 53.8988L9.41704 17.1153Z" fill="#FF5B79"/>
<path d="M27.7706 35V24.8182H34.87V26.8168H30.2315V28.9048H34.5071V30.9084H30.2315V33.0014H34.87V35H27.7706ZM38.4794 27.3636L39.7372 29.8793L41.0398 27.3636H43.4908L41.358 31.1818L43.5703 35H41.1392L39.7372 32.4645L38.37 35H35.9041L38.1214 31.1818L36.0135 27.3636H38.4794ZM44.6007 37.8636V27.3636H47.0069V28.6712H47.0815C47.1809 28.4392 47.3218 28.2154 47.5041 28C47.6897 27.7846 47.925 27.6089 48.21 27.473C48.4984 27.3338 48.8431 27.2642 49.2441 27.2642C49.7744 27.2642 50.2699 27.4034 50.7306 27.6818C51.1947 27.9602 51.5692 28.3894 51.8542 28.9695C52.1393 29.5495 52.2818 30.2886 52.2818 31.1868C52.2818 32.0518 52.1442 32.776 51.8691 33.3594C51.5974 33.9427 51.2295 34.3802 50.7654 34.6719C50.3047 34.9635 49.7927 35.1094 49.2292 35.1094C48.8448 35.1094 48.5117 35.0464 48.2299 34.9205C47.9482 34.7945 47.7112 34.6288 47.519 34.4233C47.3301 34.2178 47.1842 33.9974 47.0815 33.7621H47.0318V37.8636H44.6007ZM46.9821 31.1818C46.9821 31.5928 47.0368 31.9508 47.1461 32.2557C47.2588 32.5606 47.4196 32.7976 47.6284 32.9666C47.8405 33.1323 48.094 33.2152 48.389 33.2152C48.6873 33.2152 48.9409 33.1323 49.1497 32.9666C49.3585 32.7976 49.5159 32.5606 49.622 32.2557C49.7314 31.9508 49.786 31.5928 49.786 31.1818C49.786 30.7708 49.7314 30.4145 49.622 30.1129C49.5159 29.8113 49.3585 29.5777 49.1497 29.4119C48.9442 29.2462 48.6906 29.1634 48.389 29.1634C48.0907 29.1634 47.8372 29.2446 47.6284 29.407C47.4196 29.5694 47.2588 29.8014 47.1461 30.103C47.0368 30.4046 46.9821 30.7642 46.9821 31.1818ZM57.1254 35.1442C56.3266 35.1442 55.6372 34.9867 55.0572 34.6719C54.4805 34.3537 54.0363 33.9013 53.7248 33.3146C53.4165 32.7247 53.2624 32.0237 53.2624 31.2116C53.2624 30.4228 53.4182 29.7334 53.7298 29.1435C54.0413 28.5502 54.4805 28.0895 55.0472 27.7614C55.614 27.4299 56.2818 27.2642 57.0508 27.2642C57.5943 27.2642 58.0915 27.3487 58.5423 27.5178C58.993 27.6868 59.3825 27.937 59.7106 28.2685C60.0387 28.5999 60.2939 29.0092 60.4762 29.4964C60.6585 29.9804 60.7496 30.5355 60.7496 31.1619V31.7685H54.1126V30.3565H58.4876C58.4843 30.098 58.4229 29.8677 58.3036 29.6655C58.1843 29.4633 58.0202 29.3059 57.8114 29.1932C57.6059 29.0772 57.369 29.0192 57.1005 29.0192C56.8287 29.0192 56.5851 29.0805 56.3697 29.2031C56.1542 29.3224 55.9835 29.4865 55.8576 29.6953C55.7317 29.9008 55.6654 30.1345 55.6587 30.3963V31.8331C55.6587 32.1446 55.7201 32.4181 55.8427 32.6534C55.9653 32.8854 56.1393 33.0661 56.3647 33.1953C56.5901 33.3246 56.8585 33.3892 57.1701 33.3892C57.3855 33.3892 57.5811 33.3594 57.7567 33.2997C57.9324 33.2401 58.0832 33.1522 58.2092 33.0362C58.3351 32.9202 58.4296 32.7777 58.4925 32.6087L60.7248 32.6733C60.632 33.1738 60.4281 33.6096 60.1133 33.9808C59.8017 34.3487 59.3924 34.6354 58.8853 34.8409C58.3782 35.0431 57.7915 35.1442 57.1254 35.1442ZM61.9913 35V27.3636H64.3528V28.7557H64.4324C64.5716 28.2519 64.7986 27.8774 65.1135 27.6321C65.4283 27.3835 65.7946 27.2592 66.2122 27.2592C66.3249 27.2592 66.4409 27.2675 66.5602 27.2841C66.6795 27.2973 66.7905 27.3189 66.8933 27.3487V29.4616C66.7773 29.4219 66.6248 29.3904 66.4359 29.3672C66.2503 29.344 66.0846 29.3324 65.9387 29.3324C65.6504 29.3324 65.3902 29.397 65.1582 29.5263C64.9295 29.6522 64.7489 29.8295 64.6163 30.0582C64.487 30.2836 64.4224 30.5488 64.4224 30.8537V35H61.9913ZM72.5497 27.3636V29.1534H67.7322V27.3636H72.5497ZM68.7415 25.5341H71.1726V32.5987C71.1726 32.7479 71.1958 32.8688 71.2422 32.9616C71.2919 33.0511 71.3632 33.1158 71.456 33.1555C71.5488 33.192 71.6598 33.2102 71.7891 33.2102C71.8819 33.2102 71.9796 33.2019 72.0824 33.1854C72.1884 33.1655 72.268 33.1489 72.321 33.1357L72.6889 34.8906C72.5729 34.9238 72.4089 34.9652 72.1967 35.0149C71.9879 35.0646 71.7377 35.0961 71.446 35.1094C70.8759 35.1359 70.3871 35.0696 69.9794 34.9105C69.575 34.7481 69.2652 34.4962 69.0497 34.1548C68.8376 33.8134 68.7348 33.3842 68.7415 32.8672V25.5341ZM76.7979 35V24.8182H81.0437C81.806 24.8182 82.444 24.9259 82.9577 25.1413C83.4748 25.3568 83.8626 25.6584 84.1211 26.0462C84.3829 26.4339 84.5138 26.883 84.5138 27.3935C84.5138 27.7812 84.4326 28.1276 84.2702 28.4325C84.1078 28.7341 83.8841 28.9844 83.5991 29.1832C83.314 29.3821 82.9843 29.5213 82.6097 29.6009V29.7003C83.0207 29.7202 83.4002 29.8312 83.7482 30.0334C84.0996 30.2356 84.3813 30.5173 84.5934 30.8786C84.8055 31.2365 84.9116 31.6607 84.9116 32.1513C84.9116 32.6982 84.7724 33.187 84.494 33.6179C84.2156 34.0455 83.8129 34.3835 83.2859 34.6321C82.7589 34.8774 82.1192 35 81.3668 35H76.7979ZM79.2589 33.0163H80.7802C81.3138 33.0163 81.7066 32.9152 81.9585 32.7131C82.2137 32.5109 82.3413 32.2292 82.3413 31.8679C82.3413 31.6061 82.2799 31.3807 82.1573 31.1918C82.0347 30.9995 81.8607 30.852 81.6353 30.7493C81.4099 30.6432 81.1398 30.5902 80.8249 30.5902H79.2589V33.0163ZM79.2589 29.0043H80.6211C80.8896 29.0043 81.1282 28.9595 81.337 28.87C81.5458 28.7805 81.7082 28.6513 81.8242 28.4822C81.9435 28.3132 82.0032 28.1094 82.0032 27.8707C82.0032 27.5294 81.8822 27.2609 81.6403 27.0653C81.3983 26.8698 81.0719 26.772 80.6609 26.772H79.2589V29.0043ZM95.7049 29.9091C95.7049 31.0294 95.4895 31.9789 95.0586 32.7578C94.6277 33.5367 94.0444 34.1283 93.3086 34.5327C92.5761 34.937 91.7541 35.1392 90.8427 35.1392C89.9279 35.1392 89.1043 34.9354 88.3718 34.5277C87.6393 34.12 87.0576 33.5284 86.6268 32.7528C86.1992 31.974 85.9854 31.026 85.9854 29.9091C85.9854 28.7888 86.1992 27.8393 86.6268 27.0604C87.0576 26.2815 87.6393 25.6899 88.3718 25.2855C89.1043 24.8812 89.9279 24.679 90.8427 24.679C91.7541 24.679 92.5761 24.8812 93.3086 25.2855C94.0444 25.6899 94.6277 26.2815 95.0586 27.0604C95.4895 27.8393 95.7049 28.7888 95.7049 29.9091ZM93.1893 29.9091C93.1893 29.2462 93.0948 28.6861 92.9059 28.2287C92.7203 27.7713 92.4518 27.425 92.1005 27.1896C91.7525 26.9543 91.3332 26.8366 90.8427 26.8366C90.3555 26.8366 89.9362 26.9543 89.5849 27.1896C89.2335 27.425 88.9634 27.7713 88.7745 28.2287C88.5889 28.6861 88.4961 29.2462 88.4961 29.9091C88.4961 30.572 88.5889 31.1321 88.7745 31.5895C88.9634 32.0469 89.2335 32.3932 89.5849 32.6286C89.9362 32.8639 90.3555 32.9815 90.8427 32.9815C91.3332 32.9815 91.7525 32.8639 92.1005 32.6286C92.4518 32.3932 92.7203 32.0469 92.9059 31.5895C93.0948 31.1321 93.1893 30.572 93.1893 29.9091ZM99.0582 24.8182L100.918 28.0348H100.997L102.876 24.8182H105.631L102.558 29.9091L105.73 35H102.906L100.997 31.7486H100.918L99.0085 35H96.2045L99.3615 29.9091L96.2841 24.8182H99.0582Z" fill="white"/>
</svg>
