<svg width="144" height="71" viewBox="0 0 144 71" fill="none" xmlns="http://www.w3.org/2000/svg">
<path d="M9.41704 17.1153C10.3911 11.3838 15.1766 7.07327 20.9783 6.70143L115.325 0.654702C120.9 0.297394 126.039 3.67089 127.928 8.92814L138.448 38.1989C141.17 45.7728 136.155 53.9138 128.166 54.8886L17.0485 68.4481C8.71863 69.4646 1.76014 62.1718 3.16605 53.8988L9.41704 17.1153Z" fill="#FF5B79"/>
<path d="M34.5341 35H30.7706V24.8182H34.5291C35.5665 24.8182 36.4598 25.022 37.2088 25.4297C37.9612 25.834 38.5412 26.4174 38.9489 27.1797C39.3565 27.9387 39.5604 28.8468 39.5604 29.9041C39.5604 30.9647 39.3565 31.8762 38.9489 32.6385C38.5445 33.4008 37.9661 33.9858 37.2138 34.3935C36.4614 34.7978 35.5682 35 34.5341 35ZM33.2315 32.902H34.4396C35.0097 32.902 35.492 32.8059 35.8864 32.6136C36.2841 32.4181 36.584 32.1016 36.7862 31.6641C36.9917 31.2232 37.0945 30.6366 37.0945 29.9041C37.0945 29.1716 36.9917 28.5883 36.7862 28.1541C36.5807 27.7166 36.2775 27.4018 35.8764 27.2095C35.4787 27.014 34.9882 26.9162 34.4048 26.9162H33.2315V32.902ZM43.1499 35.1293C42.6626 35.1293 42.2301 35.0481 41.8523 34.8857C41.4777 34.7199 41.1811 34.4714 40.9624 34.1399C40.7469 33.8052 40.6392 33.3859 40.6392 32.8821C40.6392 32.4579 40.7138 32.0999 40.8629 31.8082C41.0121 31.5166 41.2176 31.2796 41.4794 31.0973C41.7412 30.915 42.0429 30.7775 42.3842 30.6847C42.7256 30.5885 43.0902 30.5239 43.478 30.4908C43.9122 30.451 44.2618 30.4096 44.527 30.3665C44.7921 30.3201 44.9844 30.2554 45.1037 30.1726C45.2263 30.0864 45.2876 29.9654 45.2876 29.8097V29.7848C45.2876 29.5296 45.1998 29.3324 45.0241 29.1932C44.8485 29.054 44.6115 28.9844 44.3132 28.9844C43.9917 28.9844 43.7332 29.054 43.5376 29.1932C43.3421 29.3324 43.2178 29.5246 43.1648 29.7699L40.9226 29.6903C40.9889 29.2263 41.1596 28.812 41.4347 28.4474C41.7131 28.0795 42.0942 27.7912 42.5781 27.5824C43.0653 27.3703 43.6503 27.2642 44.3331 27.2642C44.8203 27.2642 45.2694 27.3222 45.6804 27.4382C46.0914 27.5509 46.4493 27.7166 46.7543 27.9354C47.0592 28.1508 47.2945 28.416 47.4602 28.7308C47.6293 29.0457 47.7138 29.4053 47.7138 29.8097V35H45.4268V33.9361H45.3672C45.2313 34.1946 45.0573 34.4134 44.8452 34.5923C44.6364 34.7713 44.3894 34.9055 44.1044 34.995C43.8227 35.0845 43.5045 35.1293 43.1499 35.1293ZM43.9006 33.5384C44.1624 33.5384 44.3977 33.4853 44.6065 33.3793C44.8187 33.2732 44.9877 33.1274 45.1136 32.9418C45.2396 32.7528 45.3026 32.5341 45.3026 32.2855V31.5597C45.233 31.5961 45.1484 31.6293 45.049 31.6591C44.9529 31.6889 44.8468 31.7171 44.7308 31.7436C44.6148 31.7701 44.4955 31.7933 44.3729 31.8132C44.2502 31.8331 44.1326 31.8513 44.0199 31.8679C43.7912 31.9044 43.5956 31.9607 43.4332 32.0369C43.2741 32.1132 43.1515 32.2126 43.0653 32.3352C42.9825 32.4545 42.9411 32.5971 42.9411 32.7628C42.9411 33.0147 43.0305 33.2069 43.2095 33.3395C43.3918 33.4721 43.6222 33.5384 43.9006 33.5384ZM55.8672 29.6953L53.6349 29.755C53.6117 29.5959 53.5488 29.455 53.446 29.3324C53.3433 29.2064 53.209 29.1087 53.0433 29.0391C52.8809 28.9661 52.692 28.9297 52.4766 28.9297C52.1948 28.9297 51.9545 28.986 51.7557 29.0987C51.5601 29.2114 51.464 29.3639 51.4673 29.5561C51.464 29.7053 51.5237 29.8345 51.6463 29.9439C51.7723 30.0533 51.996 30.1411 52.3175 30.2074L53.7891 30.4858C54.5514 30.6316 55.1181 30.8736 55.4893 31.2116C55.8639 31.5497 56.0528 31.9972 56.0561 32.554C56.0528 33.0777 55.897 33.5334 55.5888 33.9212C55.2839 34.3089 54.8662 34.6106 54.3359 34.826C53.8056 35.0381 53.1991 35.1442 52.5163 35.1442C51.4259 35.1442 50.5658 34.9205 49.9361 34.473C49.3097 34.0223 48.9517 33.419 48.8622 32.6634L51.2635 32.6037C51.3165 32.8821 51.4541 33.0942 51.6761 33.2401C51.8982 33.3859 52.1816 33.4588 52.5263 33.4588C52.8378 33.4588 53.0914 33.4008 53.2869 33.2848C53.4825 33.1688 53.5819 33.0147 53.5852 32.8224C53.5819 32.6501 53.5057 32.5125 53.3565 32.4098C53.2074 32.3037 52.9737 32.2209 52.6555 32.1612L51.3232 31.9077C50.5575 31.7685 49.9875 31.5116 49.6129 31.1371C49.2384 30.7592 49.0528 30.2786 49.0561 29.6953C49.0528 29.1849 49.1887 28.7491 49.4638 28.3878C49.7389 28.0232 50.13 27.7448 50.6371 27.5526C51.1442 27.3603 51.7424 27.2642 52.4318 27.2642C53.4659 27.2642 54.2813 27.4813 54.8778 27.9155C55.4744 28.3464 55.8042 28.9396 55.8672 29.6953ZM59.6841 30.6449V35H57.253V24.8182H59.6046V28.7656H59.6891C59.8614 28.295 60.1432 27.9271 60.5343 27.6619C60.9287 27.3968 61.4109 27.2642 61.981 27.2642C62.5179 27.2642 62.9853 27.3835 63.383 27.6222C63.7807 27.8575 64.089 28.1906 64.3077 28.6214C64.5298 29.0523 64.6391 29.5561 64.6358 30.1328V35H62.2047V30.6101C62.208 30.1858 62.102 29.8544 61.8865 29.6158C61.6711 29.3771 61.3678 29.2578 60.9767 29.2578C60.7215 29.2578 60.4962 29.3142 60.3006 29.4268C60.1084 29.5362 59.9576 29.6937 59.8482 29.8991C59.7421 30.1046 59.6874 30.3532 59.6841 30.6449ZM66.1534 35V24.8182H68.5845V28.6712H68.6342C68.7337 28.4392 68.8745 28.2154 69.0568 28C69.2424 27.7846 69.4777 27.6089 69.7628 27.473C70.0511 27.3338 70.3958 27.2642 70.7969 27.2642C71.3272 27.2642 71.8227 27.4034 72.2834 27.6818C72.7474 27.9602 73.1219 28.3894 73.407 28.9695C73.692 29.5495 73.8345 30.2886 73.8345 31.1868C73.8345 32.0518 73.697 32.776 73.4219 33.3594C73.1501 33.9427 72.7822 34.3802 72.3182 34.6719C71.8575 34.9635 71.3454 35.1094 70.782 35.1094C70.3975 35.1094 70.0644 35.0464 69.7827 34.9205C69.5009 34.7945 69.264 34.6288 69.0717 34.4233C68.8828 34.2178 68.737 33.9974 68.6342 33.7621H68.5597V35H66.1534ZM68.5348 31.1818C68.5348 31.5928 68.5895 31.9508 68.6989 32.2557C68.8116 32.5606 68.9723 32.7976 69.1811 32.9666C69.3932 33.1323 69.6468 33.2152 69.9418 33.2152C70.2401 33.2152 70.4936 33.1323 70.7024 32.9666C70.9112 32.7976 71.0687 32.5606 71.1747 32.2557C71.2841 31.9508 71.3388 31.5928 71.3388 31.1818C71.3388 30.7708 71.2841 30.4145 71.1747 30.1129C71.0687 29.8113 70.9112 29.5777 70.7024 29.4119C70.4969 29.2462 70.2434 29.1634 69.9418 29.1634C69.6435 29.1634 69.3899 29.2446 69.1811 29.407C68.9723 29.5694 68.8116 29.8014 68.6989 30.103C68.5895 30.4046 68.5348 30.7642 68.5348 31.1818ZM78.6731 35.1442C77.871 35.1442 77.1816 34.9801 76.6049 34.652C76.0315 34.3205 75.5891 33.8598 75.2775 33.2699C74.9693 32.6766 74.8152 31.9889 74.8152 31.2067C74.8152 30.4212 74.9693 29.7334 75.2775 29.1435C75.5891 28.5502 76.0315 28.0895 76.6049 27.7614C77.1816 27.4299 77.871 27.2642 78.6731 27.2642C79.4752 27.2642 80.1629 27.4299 80.7363 27.7614C81.313 28.0895 81.7555 28.5502 82.0637 29.1435C82.3753 29.7334 82.5311 30.4212 82.5311 31.2067C82.5311 31.9889 82.3753 32.6766 82.0637 33.2699C81.7555 33.8598 81.313 34.3205 80.7363 34.652C80.1629 34.9801 79.4752 35.1442 78.6731 35.1442ZM78.688 33.3097C78.9797 33.3097 79.2266 33.2202 79.4288 33.0412C79.631 32.8622 79.7851 32.6136 79.8912 32.2955C80.0005 31.9773 80.0552 31.6094 80.0552 31.1918C80.0552 30.7675 80.0005 30.3963 79.8912 30.0781C79.7851 29.7599 79.631 29.5114 79.4288 29.3324C79.2266 29.1534 78.9797 29.0639 78.688 29.0639C78.3864 29.0639 78.1312 29.1534 77.9224 29.3324C77.7169 29.5114 77.5595 29.7599 77.4501 30.0781C77.344 30.3963 77.291 30.7675 77.291 31.1918C77.291 31.6094 77.344 31.9773 77.4501 32.2955C77.5595 32.6136 77.7169 32.8622 77.9224 33.0412C78.1312 33.2202 78.3864 33.3097 78.688 33.3097ZM85.9292 35.1293C85.4419 35.1293 85.0094 35.0481 84.6316 34.8857C84.257 34.7199 83.9604 34.4714 83.7417 34.1399C83.5262 33.8052 83.4185 33.3859 83.4185 32.8821C83.4185 32.4579 83.4931 32.0999 83.6422 31.8082C83.7914 31.5166 83.9969 31.2796 84.2587 31.0973C84.5205 30.915 84.8221 30.7775 85.1635 30.6847C85.5049 30.5885 85.8695 30.5239 86.2573 30.4908C86.6915 30.451 87.0411 30.4096 87.3063 30.3665C87.5714 30.3201 87.7637 30.2554 87.883 30.1726C88.0056 30.0864 88.0669 29.9654 88.0669 29.8097V29.7848C88.0669 29.5296 87.9791 29.3324 87.8034 29.1932C87.6278 29.054 87.3908 28.9844 87.0925 28.9844C86.771 28.9844 86.5125 29.054 86.3169 29.1932C86.1214 29.3324 85.9971 29.5246 85.9441 29.7699L83.7019 29.6903C83.7682 29.2263 83.9389 28.812 84.214 28.4474C84.4924 28.0795 84.8735 27.7912 85.3574 27.5824C85.8446 27.3703 86.4296 27.2642 87.1124 27.2642C87.5996 27.2642 88.0487 27.3222 88.4597 27.4382C88.8707 27.5509 89.2286 27.7166 89.5336 27.9354C89.8385 28.1508 90.0738 28.416 90.2395 28.7308C90.4086 29.0457 90.4931 29.4053 90.4931 29.8097V35H88.2061V33.9361H88.1465C88.0106 34.1946 87.8366 34.4134 87.6245 34.5923C87.4157 34.7713 87.1687 34.9055 86.8837 34.995C86.602 35.0845 86.2838 35.1293 85.9292 35.1293ZM86.6799 33.5384C86.9417 33.5384 87.177 33.4853 87.3858 33.3793C87.598 33.2732 87.767 33.1274 87.8929 32.9418C88.0189 32.7528 88.0819 32.5341 88.0819 32.2855V31.5597C88.0123 31.5961 87.9277 31.6293 87.8283 31.6591C87.7322 31.6889 87.6261 31.7171 87.5101 31.7436C87.3941 31.7701 87.2748 31.7933 87.1522 31.8132C87.0295 31.8331 86.9119 31.8513 86.7992 31.8679C86.5705 31.9044 86.3749 31.9607 86.2125 32.0369C86.0534 32.1132 85.9308 32.2126 85.8446 32.3352C85.7618 32.4545 85.7203 32.5971 85.7203 32.7628C85.7203 33.0147 85.8098 33.2069 85.9888 33.3395C86.1711 33.4721 86.4015 33.5384 86.6799 33.5384ZM91.9796 35V27.3636H94.3411V28.7557H94.4206C94.5598 28.2519 94.7869 27.8774 95.1017 27.6321C95.4166 27.3835 95.7828 27.2592 96.2005 27.2592C96.3132 27.2592 96.4292 27.2675 96.5485 27.2841C96.6678 27.2973 96.7788 27.3189 96.8816 27.3487V29.4616C96.7656 29.4219 96.6131 29.3904 96.4242 29.3672C96.2386 29.344 96.0729 29.3324 95.927 29.3324C95.6387 29.3324 95.3785 29.397 95.1465 29.5263C94.9178 29.6522 94.7372 29.8295 94.6046 30.0582C94.4753 30.2836 94.4107 30.5488 94.4107 30.8537V35H91.9796ZM100.265 35.1094C99.7013 35.1094 99.1892 34.9635 98.7285 34.6719C98.2678 34.3802 97.8999 33.9427 97.6248 33.3594C97.3497 32.776 97.2122 32.0518 97.2122 31.1868C97.2122 30.2886 97.3547 29.5495 97.6397 28.9695C97.9248 28.3894 98.2976 27.9602 98.7583 27.6818C99.2224 27.4034 99.7212 27.2642 100.255 27.2642C100.656 27.2642 100.999 27.3338 101.284 27.473C101.569 27.6089 101.804 27.7846 101.99 28C102.175 28.2154 102.316 28.4392 102.412 28.6712H102.462V24.8182H104.893V35H102.487V33.7621H102.412C102.31 33.9974 102.164 34.2178 101.975 34.4233C101.786 34.6288 101.549 34.7945 101.264 34.9205C100.982 35.0464 100.649 35.1094 100.265 35.1094ZM101.11 33.2152C101.405 33.2152 101.657 33.1323 101.866 32.9666C102.074 32.7976 102.235 32.5606 102.348 32.2557C102.461 31.9508 102.517 31.5928 102.517 31.1818C102.517 30.7642 102.461 30.4046 102.348 30.103C102.238 29.8014 102.078 29.5694 101.866 29.407C101.657 29.2446 101.405 29.1634 101.11 29.1634C100.808 29.1634 100.553 29.2462 100.344 29.4119C100.135 29.5777 99.9764 29.8113 99.867 30.1129C99.7609 30.4145 99.7079 30.7708 99.7079 31.1818C99.7079 31.5928 99.7626 31.9508 99.872 32.2557C99.9814 32.5606 100.139 32.7976 100.344 32.9666C100.553 33.1323 100.808 33.2152 101.11 33.2152Z" fill="white"/>
</svg>
